#Comment line ignore any data following # character 
#Hierarchical Translation and Rotation (.htr) file 
[Header]	
#Header keywords are followed by a single value 
FileType HTR		#Single word string
DataType HTRS		#Translation followed by rotation and scale data
FileVersion 1		#integer
NumSegments 23		#integer
NumFrames 4		#integer
DataFrameRate 30		#integer, data frame rate in this file
EulerRotationOrder ZYX
CalibrationUnits mm
RotationUnits Degrees
GlobalAxisofGravity Y
BoneLengthAxis Y
ScaleFactor 1.00
[SegmentNames&Hierarchy]
#CHILD	PARENT
MASTER GLOBAL
weapon MASTER
arm_lock_bottom_part1 weapon
arm_lock_bottom_part2 weapon
arm_lock_bottom_part3 weapon
arm_lock_bottom_part4 weapon
arm_lock_top_part1 weapon
arm_lock_top_part2 weapon
arm_lock_top_part3 weapon
front_lower_left_part1 weapon
front_lower_right_part1 weapon
front_top_left_part weapon
front_top_right_part1 weapon
scope_part1 weapon
scope_part2 weapon
front_lower_left_part2 front_lower_left_part1
front_lower_left_part3 front_lower_left_part2
front_lower_right_part2 front_lower_right_part1
front_lower_right_part3 front_lower_right_part2
front_top_left_part2 front_top_left_part
front_top_left_part3 front_top_left_part2
front_top_right_part2 front_top_right_part1
front_top_right_part3 front_top_right_part2
[BasePosition]
#SegmentName Tx, Ty, Tz, Rx, Ry, Rz, BoneLength
MASTER 0.000000 0.000000 0.000000 -90.000000 0.000000 0.000000 10.000000 
weapon 0.000000 0.000000 0.000000 0.000000 0.000000 0.000000 10.000000 
arm_lock_bottom_part1 0.000000 0.000000 0.000000 0.000000 0.000000 0.000000 10.000000 
arm_lock_bottom_part2 0.000000 0.000000 0.000000 0.000000 0.000000 0.000000 10.000000 
arm_lock_bottom_part3 0.000000 0.000000 0.000000 0.000000 0.000000 0.000000 10.000000 
arm_lock_bottom_part4 0.000000 0.000000 0.000000 0.000000 0.000000 0.000000 10.000000 
arm_lock_top_part1 0.000000 0.000000 0.000000 0.000000 0.000000 0.000000 10.000000 
arm_lock_top_part2 0.000000 0.000000 0.000000 0.000000 0.000000 0.000000 10.000000 
arm_lock_top_part3 0.000000 0.000000 0.000000 0.000000 0.000000 0.000000 10.000000 
front_lower_left_part1 0.000000 0.000000 0.000000 0.000000 0.000000 0.000000 10.000000 
front_lower_right_part1 0.000000 0.000000 0.000000 0.000000 0.000000 0.000000 10.000000 
front_top_left_part 0.000000 0.000000 0.000000 0.000000 0.000000 0.000000 10.000000 
front_top_right_part1 0.000000 0.000000 0.000000 0.000000 0.000000 0.000000 10.000000 
scope_part1 0.000000 0.000000 0.000000 0.000000 0.000000 0.000000 10.000000 
scope_part2 0.000000 0.000000 0.000000 0.000000 0.000000 0.000000 10.000000 
front_lower_left_part2 0.000000 0.000000 0.000000 0.000000 0.000000 0.000000 10.000000 
front_lower_left_part3 0.000000 0.000000 0.000000 0.000000 0.000000 0.000000 10.000000 
front_lower_right_part2 0.000000 0.000000 0.000000 0.000000 0.000000 0.000000 10.000000 
front_lower_right_part3 0.000000 0.000000 0.000000 0.000000 0.000000 0.000000 10.000000 
front_top_left_part2 0.000000 0.000000 0.000000 0.000000 0.000000 0.000000 10.000000 
front_top_left_part3 0.000000 0.000000 0.000000 0.000000 0.000000 0.000000 10.000000 
front_top_right_part2 0.000000 0.000000 0.000000 0.000000 0.000000 0.000000 10.000000 
front_top_right_part3 0.000000 0.000000 0.000000 0.000000 0.000000 0.000000 10.000000 
#Beginning of Data. Separated by tabs
#Fr	Tx	Ty	Tz	Rx	Ry	Rz	SF
[MASTER]
9 0.000000 -0.000019 0.000002 0.002458 -0.000000 0.000000 0.000019
10 0.000000 -0.000019 0.000002 0.002458 -0.000000 0.000000 0.000019
11 0.000000 -0.000019 0.000002 0.002458 -0.000000 0.000000 0.000019
12 0.000000 -0.000019 0.000002 0.002458 -0.000000 0.000000 0.000019
[weapon]
9 10.182438 -168.977936 -13.084106 -0.002473 -0.000000 -0.000020 169.789337
10 10.182438 -168.977936 -13.084106 -0.002473 -0.000000 -0.000020 169.789337
11 10.182476 -168.977936 -13.084106 -0.002473 -0.000000 -0.000020 169.789337
12 10.182476 -168.977936 -13.084106 -0.002473 -0.000000 -0.000020 169.789337
[arm_lock_bottom_part1]
9 -48.819977 98.566208 -83.498917 179.999985 0.000004 9.388626 138.096909
10 -48.819977 98.566208 -83.498917 179.999985 0.000004 9.388626 138.096909
11 -48.819977 98.566132 -83.498917 179.999985 0.000004 9.388626 138.096863
12 -48.819977 98.566170 -83.498993 179.999985 0.000004 9.388626 138.096924
[arm_lock_bottom_part2]
9 -49.022732 58.781967 -78.526459 -179.999985 -0.000001 6.576765 109.658348
10 -49.022732 58.781967 -78.526459 -179.999985 -0.000001 6.576765 109.658348
11 -49.022751 58.781967 -78.526459 -179.999985 -0.000001 6.576765 109.658356
12 -49.022713 58.781967 -78.526535 -179.999985 -0.000001 6.576765 109.658394
[arm_lock_bottom_part3]
9 -51.266422 -16.798210 -66.920319 -179.999985 -0.000001 4.326176 85.957870
10 -51.266422 -16.798210 -66.920319 -179.999985 -0.000001 4.326176 85.957870
11 -51.266422 -16.798210 -66.920319 -179.999985 -0.000001 4.326176 85.957870
12 -51.266403 -16.798210 -66.920395 -179.999985 -0.000001 4.326176 85.957916
[arm_lock_bottom_part4]
9 -40.078068 -93.503075 -59.329987 -179.999985 -0.000000 1.322129 117.767242
10 -40.078068 -93.503075 -59.329987 -179.999985 -0.000000 1.322129 117.767242
11 -40.078083 -93.503098 -59.329987 -179.999985 -0.000000 1.322129 117.767265
12 -40.078083 -93.503075 -59.330063 -179.999985 -0.000000 1.322129 117.767281
[arm_lock_top_part1]
9 -47.532558 61.554371 78.379509 0.000000 -0.000000 -9.999999 110.415726
10 -47.532558 61.554371 78.379509 0.000000 -0.000000 -9.999999 110.415726
11 -47.532539 61.554371 78.379509 0.000000 -0.000000 -9.999999 110.415718
12 -47.532558 61.554413 78.379364 0.000000 -0.000000 -9.999999 110.415642
[arm_lock_top_part2]
9 -45.622673 13.709869 63.393398 0.000000 -0.000000 -7.722126 79.297615
10 -45.622673 13.709869 63.393398 0.000000 -0.000000 -7.722126 79.297615
11 -45.622692 13.709831 63.393555 0.000000 -0.000000 -7.722126 79.297745
12 -45.622711 13.709869 63.393555 0.000000 -0.000000 -7.722126 79.297760
[arm_lock_top_part3]
9 -43.788586 -73.747192 72.061462 0.000000 0.000000 -4.533067 112.022064
10 -43.788586 -73.747192 72.061462 0.000000 0.000000 -4.533067 112.022064
11 -43.788567 -73.747192 72.061462 0.000000 0.000000 -4.533067 112.022064
12 -43.788567 -73.747208 72.061615 0.000000 0.000000 -4.533067 112.022171
[front_lower_left_part1]
9 -46.798458 475.070953 -43.538815 -15.396145 9.589561 63.439831 479.351776
10 -46.798458 475.070953 -43.538815 -15.669941 9.211587 62.003544 479.351776
11 -46.798439 475.070831 -43.538815 -15.988290 8.588056 59.792774 479.351654
12 -46.798458 475.070953 -43.538815 -16.313669 7.664411 56.692169 479.351776
[front_lower_right_part1]
9 26.433544 475.071014 -43.538895 -14.804049 -8.860919 -57.651279 477.793701
10 26.433544 475.071014 -43.538895 -14.951613 -8.635054 -56.808231 477.793701
11 26.433544 475.070892 -43.538895 -15.144376 -8.269000 -55.428173 477.793579
12 26.433523 475.070953 -43.538815 -15.374343 -7.733850 -53.395756 477.793640
[front_top_left_part]
9 -47.897167 494.788605 7.030945 -0.000000 0.000003 -0.000001 497.151215
10 -47.897167 494.788635 7.030945 -0.000000 0.000003 -0.000001 497.151245
11 -47.897167 494.788605 7.030945 -0.000000 0.000003 -0.000001 497.151215
12 -47.897167 494.788635 7.030945 -0.000000 0.000003 -0.000001 497.151245
[front_top_right_part1]
9 27.532177 494.788727 7.030945 0.000000 -0.000000 -0.000000 495.604004
10 27.532177 494.788727 7.030945 0.000000 -0.000000 -0.000000 495.604004
11 27.532177 494.788696 7.030945 0.000000 -0.000000 -0.000000 495.604004
12 27.532156 494.788727 7.030945 0.000000 -0.000000 -0.000000 495.604004
[scope_part1]
9 -10.754337 87.338936 156.453232 -5.094402 -15.675614 1.379905 179.503098
10 -10.754337 87.338936 156.453232 -5.094402 -15.675614 1.379905 179.503098
11 -10.754337 87.338905 156.453232 -5.094402 -15.675614 1.379905 179.503082
12 -10.754318 87.338936 156.453094 -5.094402 -15.675614 1.379905 179.502960
[scope_part2]
9 -10.754337 82.597389 156.859894 -5.715013 30.846378 -2.937432 177.603516
10 -10.754337 82.597389 156.859894 -5.715013 30.846378 -2.937432 177.603516
11 -10.754337 82.597267 156.859894 -5.715013 30.846378 -2.937432 177.603470
12 -10.754356 82.597351 156.859894 -5.715013 30.846378 -2.937432 177.603500
[front_lower_left_part2]
9 -55.193558 141.618469 32.268524 0.000000 0.000000 -9.974601 155.381393
10 -55.193707 141.618408 32.268372 0.000000 0.000000 -5.026053 155.381363
11 -55.193558 141.618439 32.268219 0.000000 0.000000 -0.875561 155.381302
12 -55.193558 141.618454 32.268372 0.000000 -0.000000 3.084390 155.381348
[front_lower_left_part3]
9 -10.943717 108.509483 -11.124877 23.789103 -4.361579 -30.323133 109.625885
10 -10.943717 108.509483 -11.124877 23.789103 -4.361579 -30.323133 109.625885
11 -10.943831 108.509407 -11.124725 23.789103 -4.361579 -30.323133 109.625809
12 -10.943870 108.509369 -11.124877 23.789103 -4.361579 -30.323133 109.625786
[front_lower_right_part2]
9 55.193535 141.618271 32.268372 0.000000 0.000000 -19.035873 155.381165
10 55.193558 141.618347 32.268219 0.000000 0.000000 -19.035873 155.381210
11 55.193516 141.618195 32.268219 0.000000 0.000000 -19.035873 155.381058
12 55.193634 141.618195 32.268372 0.000000 0.000000 -19.035873 155.381134
[front_lower_right_part3]
9 10.943985 108.509483 -11.124877 28.788544 -2.773253 39.959137 109.625916
10 10.943947 108.509483 -11.124725 28.788544 -2.773253 39.959137 109.625893
11 10.943947 108.509445 -11.124725 28.788544 -2.773253 39.959137 109.625862
12 10.943909 108.509552 -11.124573 28.788544 -2.773253 39.959137 109.625946
[front_top_left_part2]
9 -153.769348 122.687889 38.988190 8.498285 -5.016621 52.659103 200.542786
10 -145.333359 136.530441 38.982697 9.045109 -3.960282 45.738731 203.179718
11 -131.008316 136.882248 40.754086 9.314833 -2.899639 39.293369 193.806152
12 -112.367142 137.135529 44.999840 9.533121 -1.666191 31.996876 182.913971
[front_top_left_part3]
9 -28.216629 149.656830 49.959641 -17.718271 -14.690990 -96.733009 160.278854
10 -28.216476 149.656830 49.959793 -17.551205 -12.986759 -94.225456 160.278870
11 -28.216476 149.656830 49.959717 -18.531487 -11.712939 -90.999001 160.278839
12 -28.216476 149.656906 49.959793 -19.727966 -10.243586 -87.423729 160.278946
[front_top_right_part2]
9 135.226746 127.580490 27.321775 6.743195 4.645954 -49.294609 187.908310
10 128.249786 136.933960 28.625029 7.059741 4.071765 -44.620350 189.784897
11 115.355385 137.167053 32.393337 7.323215 3.294207 -38.785282 182.129059
12 98.359238 137.331009 38.763268 7.609305 2.323235 -31.627300 173.311676
[front_top_right_part3]
9 28.216400 149.656982 49.959564 -16.386961 14.682187 91.505463 160.278931
10 28.216362 149.656982 49.959717 -15.327445 13.331901 88.304214 160.278961
11 28.216286 149.656830 49.959641 -16.423254 12.078014 85.202667 160.278793
12 28.216476 149.656830 49.959488 -18.133663 10.674288 81.794716 160.278778
